<!--?xml version="1.0" standalone="no"?-->
              <svg id="sw-js-blob-svg" viewBox="0 0 100 100" xmlns="http://www.w3.org/2000/svg" version="1.1">
                    <defs> 
                        <linearGradient id="sw-gradient" x1="0" x2="1" y1="1" y2="0">
                            <stop id="stop1" stop-color="rgba(7.328, 5.162, 4.137, 1)" offset="0%"></stop>
                            <stop id="stop2" stop-color="rgba(14.159, 9.847, 2.729, 1)" offset="100%"></stop>
                        </linearGradient>
                    </defs>
                <path fill="url(#sw-gradient)" d="M20.9,-32.7C27.5,-28.3,33.7,-23.2,36.7,-16.7C39.7,-10.2,39.7,-2.3,38.8,5.7C37.8,13.6,35.9,21.6,31.3,27.4C26.7,33.3,19.4,37.1,11.5,39.8C3.5,42.5,-4.9,44.1,-12.9,42.4C-20.8,40.8,-28.2,35.8,-33.1,29.2C-37.9,22.6,-40.1,14.4,-40.9,6.1C-41.7,-2.1,-41,-10.2,-37.8,-17.3C-34.6,-24.3,-28.9,-30.3,-22.2,-34.6C-15.5,-39,-7.8,-41.7,-0.3,-41.3C7.1,-40.8,14.3,-37.1,20.9,-32.7Z" width="100%" height="100%" transform="translate(50 50)" stroke-width="0" style="transition: all 0.3s ease 0s;" stroke="url(#sw-gradient)"></path>
              </svg>